<?xml version="1.0" encoding="UTF-8" standalone="no"?>
<svg
   xmlns:osb="http://www.openswatchbook.org/uri/2009/osb"
   xmlns:dc="http://purl.org/dc/elements/1.1/"
   xmlns:cc="http://creativecommons.org/ns#"
   xmlns:rdf="http://www.w3.org/1999/02/22-rdf-syntax-ns#"
   xmlns:svg="http://www.w3.org/2000/svg"
   xmlns="http://www.w3.org/2000/svg"
   xmlns:sodipodi="http://sodipodi.sourceforge.net/DTD/sodipodi-0.dtd"
   xmlns:inkscape="http://www.inkscape.org/namespaces/inkscape"
   version="1.1"
   id="Layer_1"
   x="0px"
   y="0px"
   viewBox="0 0 392.982 392.982"
   style="enable-background:new 0 0 392.982 392.982;"
   xml:space="preserve"
   width="512"
   height="512"
   sodipodi:docname="jamz-highlighter.svg"
   inkscape:export-filename="/home/aja/git/jamz-highlighter/images/jamz-highlighter.png"
   inkscape:export-xdpi="24"
   inkscape:export-ydpi="24"
   inkscape:version="1.0.1 (3bc2e813f5, 2020-09-07)"><metadata
   id="metadata53"><rdf:RDF><cc:Work
       rdf:about=""><dc:format>image/svg+xml</dc:format><dc:type
         rdf:resource="http://purl.org/dc/dcmitype/StillImage" /><dc:title></dc:title></cc:Work></rdf:RDF></metadata><defs
   id="defs51"><linearGradient
   id="linearGradient2906"
   osb:paint="solid"><stop
     style="stop-color:#801662;stop-opacity:1;"
     offset="0"
     id="stop2904" /></linearGradient><linearGradient
   id="linearGradient2898"
   osb:paint="solid"><stop
     style="stop-color:#801662;stop-opacity:1;"
     offset="0"
     id="stop2896" /></linearGradient><rect
   x="146.97439"
   y="232.01269"
   width="47.390274"
   height="41.51461"
   id="rect917" /><rect
   x="76.09303"
   y="198.07624"
   width="256.91011"
   height="131.9153"
   id="rect911" />
	
	
	
	
	
	
	
	
	
	
	
	
	
	
	

		
		
		
		
		
		
		
	</defs><sodipodi:namedview
   pagecolor="#ffffff"
   bordercolor="#666666"
   borderopacity="1"
   objecttolerance="10"
   gridtolerance="10"
   guidetolerance="10"
   inkscape:pageopacity="0"
   inkscape:pageshadow="2"
   inkscape:window-width="2560"
   inkscape:window-height="1043"
   id="namedview49"
   showgrid="false"
   inkscape:zoom="1"
   inkscape:cx="153.3116"
   inkscape:cy="300.72644"
   inkscape:window-x="0"
   inkscape:window-y="0"
   inkscape:window-maximized="1"
   inkscape:current-layer="Layer_1" />
<rect
   style="fill:#801662;fill-opacity:1;stroke-width:1.0171;stroke-miterlimit:4;stroke-dasharray:none"
   id="rect2933"
   width="265.07004"
   height="48.951786"
   x="68.863998"
   y="124.17321" /><rect
   style="fill:#801662;stroke-width:0.76551;fill-opacity:1"
   id="rect907"
   width="265.07001"
   height="182.22395"
   x="68.863998"
   y="173.125" /><path
   style="fill:#9ad14b"
   d="m 366.004,91.024 -4.58,6.24 c -4.74,6.47 -10.28,12.1 -16.41,16.81 -3.51,2.7 -7.22,5.11 -11.08,7.2 -20.72,11.22 -45.8,13.43 -68.93,4.75 -20.17,15.61 -44.35,23.41 -68.51,23.41 -24.17,0 -48.34,-7.8 -68.51,-23.41 -8.29,3.11 -16.84,4.83 -25.34,5.23 -1.3,0.06 -2.59,0.09 -3.89,0.09 -10.26,0 -20.39,-1.9 -29.89,-5.55 -5.51,-2.12 -10.81,-4.82 -15.79,-8.09 -8.17,-5.35 -15.49,-12.21 -21.52,-20.44 l -4.57,-6.24 51.41,-24.62 h 236.19 l 7.91,3.79 z"
   id="path6" /><path
   style="fill:#9ad14b"
   d="m 343.984,25.405 v 23.09 c 0,9.89 -8.77,17.91 -19.58,17.91 h -1.91 -7.91 -236.19 c -10.81,0 -19.57,-8.02 -19.57,-17.91 v -23.09 c 0,-9.89 8.76,-17.9 19.57,-17.9 h 246.01 c 10.81,0 19.58,8.01 19.58,17.9 z"
   id="path10" /><path
   style="fill:#90bc42"
   d="m 130.82,48.495 v -23.09 c 0,-9.89 8.76,-17.9 19.57,-17.9 H 78.394 c -10.81,0 -19.57,8.01 -19.57,17.9 v 23.09 c 0,9.89 8.76,17.91 19.57,17.91 h 71.996 c -10.81,-0.001 -19.57,-8.02 -19.57,-17.91 z"
   id="path12" /><path
   style="fill:#801662;fill-opacity:1;stroke-width:1.00010849;stroke-miterlimit:4;stroke-dasharray:none"
   d="m 363.394,148.215 v 196.37 c 0,22.59 -18.31,40.9 -40.9,40.9 H 80.314 c -22.59,0 -40.9,-18.31 -40.9,-40.9 v -196.37 c 0,-12.12 5.27,-23.01 13.65,-30.5 l 0.01,-0.01 c 4.98,3.27 10.28,5.97 15.79,8.09 v 47.33 171.46 c 0,6.31 5.13,11.44 11.45,11.44 h 242.18 c 6.32,0 11.44,-5.13 11.44,-11.44 v -126.57 -44.89 -51.85 c 3.86,-2.09 7.57,-4.5 11.08,-7.2 11.08,7.31 18.38,19.87 18.38,34.14 z"
   id="path8" /><path
   style="fill:#90bc42"
   d="m 117.034,67.924 -14.39,63.33 c -1.3,0.06 -2.59,0.09 -3.89,0.09 -10.26,0 -20.39,-1.9 -29.89,-5.55 -5.51,-2.12 -10.81,-4.82 -15.79,-8.09 -8.17,-5.35 -15.49,-12.21 -21.52,-20.44 l -4.57,-6.24 51.41,-24.62 h 35.43 z"
   id="path20" /><path
   style="fill:#ffffff"
   d="m 321.025,54.426 c -4.143,0 -7.5,-3.357 -7.5,-7.5 V 28.927 c 0,-4.143 3.357,-7.5 7.5,-7.5 4.143,0 7.5,3.357 7.5,7.5 v 17.999 c 0,4.142 -3.357,7.5 -7.5,7.5 z"
   id="path22" /><path
   style="fill:#ffffff"
   d="m 327.019,105.426 c -1.127,0 -2.271,-0.256 -3.349,-0.794 l -20.999,-10.5 c -3.704,-1.853 -5.206,-6.357 -3.354,-10.063 1.852,-3.705 6.356,-5.205 10.063,-3.354 l 20.999,10.5 c 3.704,1.853 5.206,6.357 3.354,10.063 -1.314,2.628 -3.963,4.148 -6.714,4.148 z"
   id="path24" /><path
   style="fill:#333333"
   d="m 367.477,101.699 4.574,-6.245 c 1.318,-1.8 1.767,-4.094 1.224,-6.259 -0.544,-2.164 -2.023,-3.974 -4.035,-4.938 L 339.095,69.824 c 7.447,-4.532 12.388,-12.396 12.388,-21.327 V 25.407 C 351.482,11.397 339.335,0 324.404,0 H 78.397 C 63.467,0 51.319,11.397 51.319,25.407 v 23.091 c 0,7.275 3.281,13.841 8.521,18.478 L 23.743,84.258 c -2.012,0.964 -3.491,2.773 -4.035,4.938 -0.543,2.164 -0.095,4.458 1.224,6.258 l 4.573,6.246 c 4.765,6.506 10.302,12.213 16.4,17.093 -6.416,8.384 -9.993,18.713 -9.993,29.42 v 196.37 c 0,26.688 21.712,48.4 48.4,48.4 h 242.18 c 26.688,0 48.4,-21.712 48.4,-48.4 v -196.37 c 0,-13.028 -5.199,-25.275 -14.226,-34.26 3.921,-3.705 7.545,-7.795 10.811,-12.254 z M 66.319,25.407 C 66.319,19.669 71.737,15 78.397,15 h 246.007 c 6.66,0 12.078,4.669 12.078,10.407 v 23.091 c 0,5.739 -5.418,10.408 -12.078,10.408 H 78.397 c -6.66,0 -12.078,-4.669 -12.078,-10.408 z M 80.1,73.906 h 232.783 l 41.715,19.973 c -20.136,26.522 -55.697,36.855 -86.962,25.122 -2.436,-0.915 -5.168,-0.501 -7.225,1.09 -37.637,29.114 -90.205,29.114 -127.84,0 -2.057,-1.591 -4.789,-2.005 -7.225,-1.09 -31.262,11.731 -66.825,1.4 -86.963,-25.122 z m -3.738,106.715 h 250.07 v 163.961 c 0,2.173 -1.768,3.94 -3.94,3.94 H 80.313 c -2.178,0 -3.95,-1.768 -3.95,-3.94 V 180.621 Z m 250.071,-15 H 76.362 v -29.685 c 16.275,4.15 33.717,3.853 50.327,-1.521 20.834,15.01 45.313,22.513 69.802,22.511 24.482,-0.002 48.973,-7.505 69.802,-22.511 9.115,2.949 18.478,4.375 27.766,4.374 11.094,-10e-4 22.072,-2.045 32.374,-5.945 z m 29.46,-17.409 v 196.37 c 0,18.417 -14.983,33.4 -33.4,33.4 H 80.313 c -18.417,0 -33.4,-14.983 -33.4,-33.4 v -196.37 c 0,-7.699 2.672,-15.123 7.458,-21.031 2.283,1.274 4.615,2.451 6.992,3.521 v 213.88 c 0,10.443 8.501,18.94 18.95,18.94 h 242.18 c 10.443,0 18.94,-8.497 18.94,-18.94 v -219.04 c 1.142,-0.692 2.269,-1.413 3.382,-2.157 7.003,6.283 11.078,15.248 11.078,24.827 z"
   id="path30" /><path
   style="fill:#ffffff"
   d="m 311.69918,334.912 c -4.143,0 -7.5,-3.357 -7.5,-7.5 V 192.419 c 0,-4.143 3.357,-7.5 7.5,-7.5 4.143,0 7.5,3.357 7.5,7.5 v 134.993 c 0,4.143 -3.358,7.5 -7.5,7.5 z"
   id="path42" />















<text
   xml:space="preserve"
   id="text909"
   style="font-style:normal;font-variant:normal;font-weight:600;font-stretch:normal;font-size:73.6841px;line-height:1.25;font-family:FreeSans;-inkscape-font-specification:'FreeSans, Semi-Bold';font-variant-ligatures:normal;font-variant-caps:normal;font-variant-numeric:normal;font-variant-east-asian:normal;text-align:center;white-space:pre;shape-inside:url(#rect911);fill:#ffd500;fill-opacity:1;stroke:none"
   x="153.18689"
   y="0"
   transform="translate(-10.562457,20.206982)"><tspan
     x="107.06491"
     y="266.23396"><tspan
       style="font-style:normal;font-variant:normal;font-weight:600;font-stretch:normal;font-size:73.6841px;font-family:FreeSans;-inkscape-font-specification:'FreeSans, Semi-Bold';font-variant-ligatures:normal;font-variant-caps:normal;font-variant-numeric:normal;font-variant-east-asian:normal;text-align:center;text-anchor:middle;fill:#ffd500;fill-opacity:1">JAMz</tspan></tspan></text><text
   xml:space="preserve"
   id="text915"
   style="fill:black;fill-opacity:1;line-height:1.25;stroke:none;font-family:sans-serif;font-style:normal;font-weight:normal;font-size:30.70171875px;white-space:pre;shape-inside:url(#rect917);" /></svg>
